HIERARCHY
ROOT SimulationBone
{
	OFFSET 0.000000 0.000000 0.000000
	CHANNELS 6 Xposition Yposition Zposition Zrotation Yrotation Xrotation 
	JOINT Hips
	{
		OFFSET 0.000000 0.000000 0.000000
		CHANNELS 6 Xposition Yposition Zposition Zrotation Yrotation Xrotation 
		JOINT RightUpLeg
		{
			OFFSET 0.103456 1.857840 10.548501
			CHANNELS 3 Zrotation Yrotation Xrotation
			JOINT RightLeg
			{
				OFFSET 43.499992 -0.000038 -0.000006
				CHANNELS 3 Zrotation Yrotation Xrotation
				JOINT RightFoot
				{
					OFFSET 42.372196 0.000031 0.000002
					CHANNELS 3 Zrotation Yrotation Xrotation
					JOINT RightToe
					{
						OFFSET 17.299974 -0.000010 -0.000017
						CHANNELS 3 Zrotation Yrotation Xrotation
						End Site
						{
							OFFSET 0.000000 0.000000 0.000000
						}
					}
				}
			}
		}
		JOINT LeftUpLeg
		{
			OFFSET 0.103462 1.857831 -10.548510
			CHANNELS 3 Zrotation Yrotation Xrotation
			JOINT LeftLeg
			{
				OFFSET 43.500046 -0.000015 0.000008
				CHANNELS 3 Zrotation Yrotation Xrotation
				JOINT LeftFoot
				{
					OFFSET 42.372265 -0.000015 0.000004
					CHANNELS 3 Zrotation Yrotation Xrotation
					JOINT LeftToe
					{
						OFFSET 17.299995 -0.000004 0.000013
						CHANNELS 3 Zrotation Yrotation Xrotation
						End Site
						{
							OFFSET 0.000000 0.000000 0.000000
						}
					}
				}
			}
		}
		JOINT Spine
		{
			OFFSET 6.901966 -2.603716 -0.000002
			CHANNELS 3 Zrotation Yrotation Xrotation
			JOINT Spine1
			{
				OFFSET 12.588102 -0.000001 0.000005
				CHANNELS 3 Zrotation Yrotation Xrotation
				JOINT Spine2
				{
					OFFSET 12.343201 -0.000023 -0.000011
					CHANNELS 3 Zrotation Yrotation Xrotation
					JOINT Neck
					{
						OFFSET 25.832901 0.000011 0.000007
						CHANNELS 3 Zrotation Yrotation Xrotation
						JOINT Head
						{
							OFFSET 11.766600 -0.000002 0.000002
							CHANNELS 3 Zrotation Yrotation Xrotation
							End Site
							{
								OFFSET 0.000000 0.000000 0.000000
							}
						}
					}
					JOINT RightShoulder
					{
						OFFSET 19.745907 -1.480350 6.000119
						CHANNELS 3 Zrotation Yrotation Xrotation
						JOINT RightArm
						{
							OFFSET 11.284122 -0.000013 -0.000023
							CHANNELS 3 Zrotation Yrotation Xrotation
							JOINT RightForeArm
							{
								OFFSET 33.000057 0.000005 0.000025
								CHANNELS 3 Zrotation Yrotation Xrotation
								JOINT RightHand
								{
									OFFSET 25.199997 0.000020 0.000019
									CHANNELS 3 Zrotation Yrotation Xrotation
									End Site
									{
										OFFSET 0.000000 0.000000 0.000000
									}
								}
							}
						}
					}
					JOINT LeftShoulder
					{
						OFFSET 19.746096 -1.480352 -6.000062
						CHANNELS 3 Zrotation Yrotation Xrotation
						JOINT LeftArm
						{
							OFFSET 11.284150 0.000007 -0.000012
							CHANNELS 3 Zrotation Yrotation Xrotation
							JOINT LeftForeArm
							{
								OFFSET 33.000092 0.000019 0.000012
								CHANNELS 3 Zrotation Yrotation Xrotation
								JOINT LeftHand
								{
									OFFSET 25.199797 0.000118 0.000427
									CHANNELS 3 Zrotation Yrotation Xrotation
									End Site
									{
										OFFSET 0.000000 0.000000 0.000000
									}
								}
							}
						}
					}
				}
			}
		}
	}
}
MOTION
Frames: 5
Frame Time: 0.033333
-317.986740 0.000000 165.091745 0.000000 86.558575 0.000000 -3.543515 91.692886 -2.411712 83.986030 -3.202127 172.697454 163.767268 -7.627501 149.245685 -20.937938 6.339469 -14.379804 72.154139 3.158630 -22.518671 21.454560 0.003107 0.000016 157.602476 12.794812 -153.991628 -33.405755 0.223680 12.523874 80.571541 -8.412853 1.087883 21.454551 -0.003089 0.000001 6.036029 -0.598054 0.575025 2.053334 -1.205822 1.139750 1.735223 -1.199059 1.147007 8.818847 -3.109326 -10.150535 -11.740806 18.967237 -16.864456 -172.845915 -76.082495 -8.730989 22.964621 49.681109 41.724465 -45.217850 -15.015766 1.632914 6.139832 -8.914344 0.904594 -165.740045 80.035610 16.006051 -21.112917 -57.493097 -25.680468 -30.022264 11.203552 -0.985084 11.025775 4.656574 4.461676 
-318.006180 0.000000 165.333999 0.000000 82.401844 0.000000 -3.666209 91.667923 -2.525434 83.645047 -3.859273 173.362340 164.757058 -7.078995 148.460555 -20.630598 6.511376 -14.331743 72.331512 2.429834 -24.811069 21.454560 0.003112 0.000018 157.344828 12.581994 -151.971449 -33.792648 0.015880 16.740222 80.439582 -11.396457 0.723889 21.454555 -0.003087 -0.000002 5.961990 -0.729181 0.321845 1.907252 -1.463336 0.632085 1.589065 -1.459634 0.640912 8.836042 -3.066008 -9.965972 -11.233063 18.573438 -16.446342 -175.325929 -76.225198 -6.197019 23.432099 49.076398 41.887296 -45.194125 -15.293837 1.650535 6.477164 -8.159508 0.125951 -162.183115 79.843306 19.622061 -17.561205 -56.856339 -28.431159 -32.304343 12.149272 -1.091830 10.290067 5.880857 6.382718 
-317.807153 0.000000 165.585187 0.000000 78.287032 0.000000 -3.769035 91.454536 -2.525172 83.352906 -4.321928 174.276069 165.929146 -6.740920 147.256105 -20.179236 6.761354 -13.981045 73.196870 1.678239 -27.014052 21.454560 0.003112 0.000019 157.538395 12.053109 -150.102969 -33.172251 -0.591575 17.552217 81.177652 -11.534641 2.490997 21.454551 -0.003093 0.000000 5.855575 -0.803861 0.092359 1.697232 -1.608894 0.173408 1.379006 -1.607940 0.183116 9.092159 -3.254338 -9.698183 -10.789478 18.191510 -15.992502 -176.941911 -76.210820 -4.544906 23.672758 49.025329 41.603966 -45.056869 -15.126058 1.635416 6.489905 -8.317307 -0.363257 -160.361080 79.753353 21.475124 -13.504743 -56.263728 -31.319576 -34.646319 13.199516 -1.210500 9.610758 7.327762 7.519581 
-317.415125 0.000000 165.846560 0.000000 74.207461 0.000000 -3.805925 91.098717 -2.312035 83.136318 -4.591770 175.129934 167.102777 -6.823599 145.571822 -19.931151 7.018001 -13.844489 74.042386 1.151051 -29.073523 21.454553 0.003103 0.000014 157.838582 10.785199 -149.958374 -31.434119 -1.452183 16.489251 83.414710 -10.714661 2.822155 21.454551 -0.003089 0.000000 5.763957 -0.851449 -0.055657 1.516144 -1.702089 -0.121970 1.197897 -1.702920 -0.111688 8.780624 -3.190267 -9.446911 -9.979057 17.513408 -15.373726 -175.803974 -76.746287 -5.714096 23.594414 50.282056 40.699841 -44.914969 -14.910161 1.617013 6.013522 -7.871987 -0.069082 -158.720974 79.655633 23.144046 -9.826983 -55.948791 -33.248118 -36.758722 14.097293 -1.317759 9.160139 7.841554 6.805046 
-316.810723 0.000000 166.092853 0.000000 70.165249 0.000000 -3.841689 90.875961 -1.959397 82.874198 -4.534208 176.076304 167.946319 -7.022193 144.519276 -19.648164 7.560052 -14.691904 73.844563 1.263893 -30.560220 21.454558 0.003108 0.000015 157.656489 9.490492 -150.626913 -30.715709 -2.323460 14.665540 84.870599 -9.381693 3.174432 21.454550 -0.003093 0.000000 5.682133 -0.838043 -0.137470 1.353632 -1.674455 -0.284248 1.035400 -1.676264 -0.274125 8.364958 -3.831311 -9.236087 -9.120277 17.804594 -15.180644 -176.260996 -76.522325 -5.245114 23.412765 51.284434 39.697316 -45.129929 -15.295532 1.648741 6.622688 -7.544875 -0.632756 -156.247066 79.413510 25.664084 -7.128217 -55.890127 -34.306326 -38.127444 14.734316 -1.392617 8.877295 8.422191 5.537523 
